<?xml version="1.0" standalone="no"?>
<!DOCTYPE svg PUBLIC "-//W3C//DTD SVG 20010904//EN"
 "http://www.w3.org/TR/2001/REC-SVG-20010904/DTD/svg10.dtd">
<svg version="1.0" xmlns="http://www.w3.org/2000/svg"
 width="250.000000pt" height="254.000000pt" viewBox="0 0 250.000000 254.000000"
 preserveAspectRatio="xMidYMid meet">

<g transform="translate(0.000000,254.000000) scale(0.100000,-0.100000)"
fill="#000000" stroke="none">
<path d="M1218 2178 c-3 -335 -3 -343 -23 -343 -19 0 -20 8 -25 254 -4 191 -8
255 -17 259 -10 3 -13 -51 -13 -249 l0 -252 40 -37 c40 -37 40 -37 40 -113 0
-42 -3 -78 -8 -81 -4 -2 -33 11 -65 31 l-57 35 0 299 c0 164 -4 299 -9 299 -4
0 -29 -22 -55 -50 l-47 -50 3 -157 c2 -114 6 -157 16 -161 9 -3 12 33 12 157
0 153 1 161 23 181 l22 21 5 -278 c3 -153 7 -278 8 -279 1 -1 28 -17 60 -36
94 -58 100 -60 123 -47 12 6 48 31 80 56 l59 44 0 270 c0 217 3 269 13 269 16
0 57 -42 57 -58 0 -7 7 -12 16 -12 11 0 14 6 8 23 -9 29 -25 47 -79 86 l-45
32 0 -300 0 -301 -47 -35 c-27 -19 -51 -35 -55 -35 -5 0 -8 36 -8 81 0 79 1
80 35 112 l35 32 -2 250 c-2 158 -7 250 -13 250 -6 0 -11 -90 -13 -244 -2
-234 -7 -271 -33 -271 -5 0 -9 154 -9 345 0 299 -2 345 -15 345 -13 0 -15 -47
-17 -342z"/>
<path d="M1460 1998 c0 -100 1 -110 15 -92 21 28 21 204 0 204 -12 0 -15 -19
-15 -112z"/>
<path d="M923 1858 c-6 -7 -13 -25 -16 -39 -5 -21 -11 -25 -30 -22 -40 8 -48
-31 -45 -222 l3 -170 180 -77 c110 -47 194 -77 215 -77 21 0 108 30 220 77
l185 78 3 152 c1 92 6 152 12 152 7 0 9 -69 8 -191 l-3 -191 -155 -59 c-85
-33 -178 -68 -207 -79 l-52 -19 -4 32 -4 32 -1 -32 c-1 -18 -5 -33 -8 -33 -12
0 -391 152 -411 166 -22 14 -23 19 -23 189 0 152 2 176 17 191 17 17 16 17
-12 10 -39 -10 -55 -24 -55 -47 0 -12 -17 -27 -50 -44 l-50 -25 0 -205 c0
-128 4 -206 10 -210 6 -4 123 -44 260 -91 329 -111 301 -111 650 4 l265 88 3
197 c2 187 1 198 -18 217 -11 11 -34 23 -50 26 -22 5 -30 13 -32 33 -2 20 -13
31 -45 46 -30 14 -43 26 -43 40 0 21 -46 55 -65 49 -5 -2 -17 11 -25 29 -18
39 -37 43 -70 17 -24 -18 -25 -24 -25 -118 0 -114 -3 -120 -84 -162 -31 -16
-69 -38 -86 -49 -16 -12 -41 -21 -55 -21 -24 0 -203 100 -216 122 -4 6 -6 49
-5 96 2 94 -4 122 -25 122 -11 0 -14 -21 -14 -110 0 -130 -5 -123 131 -200 67
-39 104 -54 129 -54 38 1 182 80 233 127 26 25 27 29 27 136 0 92 3 111 15
111 13 0 15 -23 15 -151 0 -83 -4 -158 -9 -167 -5 -10 -72 -48 -149 -85 l-139
-69 -134 75 -134 74 -3 171 c-1 95 -6 172 -11 172 -5 0 -13 -6 -18 -12z m-23
-83 c8 -10 10 -44 5 -123 -5 -77 -4 -115 4 -131 8 -14 66 -49 154 -92 124 -62
147 -70 180 -65 21 4 101 38 178 77 l139 70 0 128 c0 102 3 131 15 141 13 11
15 -9 15 -168 0 -134 -3 -183 -12 -189 -19 -12 -298 -133 -329 -143 -21 -6
-59 7 -200 70 l-174 77 -3 182 c-1 103 1 181 7 181 5 0 14 -7 21 -15z m-158
-301 l3 -166 130 -48 c72 -26 168 -62 214 -79 109 -41 162 -42 271 -3 112 40
286 105 333 125 l37 16 0 150 c0 89 4 152 10 156 7 4 10 -65 10 -199 0 -137
-4 -207 -11 -212 -6 -3 -121 -44 -255 -90 l-244 -83 -1 37 c-2 34 -2 34 -6 7
-3 -16 -8 -33 -12 -37 -7 -8 -417 129 -474 158 -17 9 -35 22 -39 28 -12 17 -9
365 2 387 23 42 30 13 32 -147z"/>
<path d="M500 990 l0 -100 110 0 c92 0 120 -4 175 -25 l65 -24 13 32 c8 18 20
50 27 72 7 22 19 47 26 55 12 14 2 20 -84 50 -53 18 -103 35 -109 38 -10 3
-13 -19 -13 -92 0 -79 -3 -96 -15 -96 -11 0 -15 12 -15 45 l0 45 -45 0 -45 0
0 -45 c0 -34 -4 -45 -16 -45 -13 0 -15 14 -12 95 l3 95 -32 0 -33 0 0 -100z"/>
<path d="M590 1050 l0 -40 44 0 44 0 4 40 4 40 -48 0 -48 0 0 -40z"/>
<path d="M1628 1052 c-62 -23 -94 -40 -89 -47 7 -9 61 -151 61 -161 0 -14 -29
-1 -33 16 -4 15 -14 20 -42 20 -28 0 -38 -5 -42 -20 -3 -11 -12 -20 -19 -20
-18 0 -19 -8 16 83 17 43 30 80 30 82 0 3 -36 -9 -81 -25 -72 -27 -92 -30
-198 -30 -114 0 -162 10 -273 55 -14 6 -12 -6 13 -70 16 -42 29 -80 29 -86 0
-17 -22 -9 -27 11 -8 31 -76 28 -90 -3 -11 -23 -8 -25 120 -71 125 -44 138
-46 234 -46 103 0 103 0 310 75 l206 75 109 0 108 0 0 100 0 100 -40 0 c-29 0
-40 -4 -40 -15 0 -11 -12 -15 -45 -15 -41 0 -45 -2 -45 -25 0 -22 4 -25 40
-25 22 0 40 -4 40 -10 0 -5 -18 -10 -40 -10 l-40 0 0 -45 c0 -33 -4 -45 -15
-45 -12 0 -15 17 -15 95 0 114 4 112 -142 57z m-393 -122 c78 -18 101 -95 46
-151 -25 -24 -37 -29 -80 -29 l-51 0 0 95 c0 107 -2 105 85 85z"/>
<path d="M1180 839 l0 -71 32 6 c43 9 68 33 68 68 0 37 -32 68 -70 68 l-30 0
0 -71z"/>
<path d="M913 940 c-11 -28 -10 -30 14 -30 21 0 23 3 18 23 -12 36 -20 38 -32
7z"/>
<path d="M1512 941 c-10 -29 -10 -31 14 -31 27 0 29 5 10 39 l-13 24 -11 -32z"/>
<path d="M486 622 c-3 -6 -1 -14 5 -17 15 -10 25 3 12 16 -7 7 -13 7 -17 1z"/>
<path d="M1380 607 c0 -20 7 -30 24 -37 13 -5 26 -15 29 -22 3 -7 6 -4 6 8 1
11 -12 33 -29 49 l-30 29 0 -27z"/>
<path d="M1548 618 c-3 -7 -1 -29 3 -47 10 -43 5 -51 -30 -51 -31 0 -40 17
-42 75 0 25 -2 22 -13 -18 -15 -55 -10 -49 -61 -75 -36 -19 -37 -21 -15 -22
32 0 70 25 71 48 1 10 4 7 8 -8 7 -25 7 -25 149 -28 l142 -3 0 44 c0 24 5 48
11 54 8 8 6 14 -9 22 -27 14 -34 2 -22 -40 14 -48 14 -49 -25 -49 -19 0 -35 4
-35 9 0 5 -7 17 -16 25 -14 14 -19 14 -51 1 -19 -8 -37 -15 -39 -15 -8 0 -3
37 6 46 7 7 4 16 -9 28 -14 13 -20 14 -23 4z m102 -88 c0 -5 -14 -10 -31 -10
-17 0 -28 4 -24 10 3 6 17 10 31 10 13 0 24 -4 24 -10z"/>
<path d="M1916 623 c-11 -11 -6 -23 9 -23 8 0 15 4 15 9 0 13 -16 22 -24 14z"/>
<path d="M2286 615 c-3 -8 -1 -29 5 -47 13 -48 13 -48 -36 -48 -44 0 -44 0
-34 26 15 40 0 43 -31 6 -21 -26 -34 -33 -56 -30 -22 2 -29 10 -39 43 -12 45
-27 29 -18 -19 6 -28 5 -28 -31 -24 -29 3 -36 1 -36 -13 0 -15 10 -18 75 -18
67 0 78 -3 95 -23 l20 -23 17 22 c11 13 32 23 53 25 33 3 35 5 38 43 2 22 7
45 12 50 6 7 2 17 -10 27 -15 13 -19 14 -24 3z m-84 -77 c-7 -7 -12 -8 -12 -2
0 14 12 26 19 19 2 -3 -1 -11 -7 -17z m3 -48 c3 -5 2 -10 -4 -10 -5 0 -13 5
-16 10 -3 6 -2 10 4 10 5 0 13 -4 16 -10z"/>
<path d="M861 558 l-1 -67 120 0 c66 0 125 -3 130 -6 6 -3 10 3 10 14 0 12 -4
21 -9 21 -16 0 -23 38 -12 59 14 24 -15 54 -29 31 -5 -8 -5 -21 1 -31 5 -10 9
-27 9 -38 0 -17 -6 -21 -36 -21 -27 0 -35 4 -31 14 7 17 -11 36 -34 36 -24 0
-33 -18 -19 -35 11 -13 6 -15 -33 -15 l-45 0 -10 53 -10 52 -1 -67z"/>
<path d="M1157 603 c-10 -9 -7 -64 3 -88 6 -14 9 -4 9 38 1 58 0 62 -12 50z"/>
<path d="M2367 603 c-10 -9 -7 -64 3 -88 6 -14 9 -4 9 38 1 58 0 62 -12 50z"/>
<path d="M662 589 c2 -6 8 -10 13 -10 5 0 11 4 13 10 2 6 -4 11 -13 11 -9 0
-15 -5 -13 -11z"/>
<path d="M780 573 c0 -12 5 -25 10 -28 18 -11 10 -25 -15 -25 -16 0 -25 -6
-25 -15 0 -10 11 -15 35 -15 32 0 35 3 35 29 0 16 -9 39 -20 52 l-19 24 -1
-22z"/>
<path d="M1930 575 c-19 -23 -4 -48 25 -41 14 4 25 2 25 -4 0 -6 -27 -10 -65
-10 -50 0 -66 4 -74 18 -10 15 -10 15 -11 -3 0 -35 20 -45 92 -45 l68 0 0 34
c0 19 -3 41 -6 50 -8 20 -38 21 -54 1z"/>
<path d="M127 573 c-12 -12 -7 -23 11 -23 15 -1 14 -2 -3 -12 -29 -16 -32 -23
-26 -65 l5 -38 6 40 c4 36 8 40 34 40 36 1 44 19 20 46 -17 19 -35 24 -47 12z"/>
<path d="M310 565 c-10 -12 -9 -15 6 -15 16 0 16 -2 -4 -16 -23 -16 -27 -39
-15 -71 6 -14 9 -10 13 17 4 30 9 35 32 35 33 -1 41 16 22 44 -18 25 -37 27
-54 6z"/>
<path d="M510 571 c0 -5 7 -14 15 -21 22 -18 18 -30 -10 -30 -16 0 -25 -6 -25
-15 0 -20 59 -20 66 0 8 21 -15 75 -32 75 -8 0 -14 -4 -14 -9z"/>
<path d="M697 546 c-3 -7 -1 -18 5 -24 16 -16 2 -42 -23 -42 -13 0 -31 7 -41
17 -17 15 -18 15 -18 -10 0 -35 39 -46 75 -23 19 12 25 25 25 51 0 35 -14 55
-23 31z"/>
<path d="M1267 542 c-20 -22 -21 -29 -5 -46 12 -12 58 -10 58 3 0 4 -12 12
-27 18 -26 10 -26 11 -5 12 12 1 22 7 22 16 0 21 -23 19 -43 -3z"/>
<path d="M230 512 c0 -14 11 -21 26 -15 8 3 11 9 8 14 -7 11 -34 12 -34 1z"/>
<path d="M410 512 c0 -14 11 -21 26 -15 8 3 11 9 8 14 -7 11 -34 12 -34 1z"/>
<path d="M105 410 c-7 -11 -35 -101 -35 -112 0 -5 5 -8 10 -8 6 0 10 7 10 15
0 20 46 20 54 0 3 -8 10 -15 15 -15 5 0 0 29 -12 65 -21 63 -30 75 -42 55z
m25 -62 c0 -5 -7 -8 -15 -8 -17 0 -18 2 -9 25 5 13 8 14 15 3 5 -7 9 -16 9
-20z"/>
<path d="M180 355 l0 -65 35 0 c19 0 35 5 35 10 0 6 -11 10 -25 10 -24 0 -25
3 -25 55 0 30 -4 55 -10 55 -6 0 -10 -28 -10 -65z"/>
<path d="M300 355 c0 -37 4 -65 10 -65 6 0 10 14 10 30 0 25 4 30 25 30 21 0
25 -5 25 -30 0 -16 5 -30 10 -30 6 0 10 28 10 65 0 37 -4 65 -10 65 -5 0 -10
-11 -10 -25 0 -20 -5 -25 -25 -25 -20 0 -25 5 -25 25 0 14 -4 25 -10 25 -6 0
-10 -28 -10 -65z"/>
<path d="M423 355 c-12 -36 -17 -65 -12 -65 5 0 12 7 15 15 4 8 17 15 30 15
15 0 24 -6 24 -15 0 -8 5 -15 11 -15 7 0 8 12 4 33 -10 45 -32 97 -42 97 -5 0
-18 -29 -30 -65z m47 -7 c0 -5 -7 -8 -15 -8 -17 0 -18 2 -9 25 5 13 8 14 15 3
5 -7 9 -16 9 -20z"/>
<path d="M520 355 l0 -65 33 0 c43 0 57 15 57 61 0 42 -27 69 -67 69 -22 0
-23 -4 -23 -65z m59 31 c20 -24 10 -70 -16 -74 -21 -3 -23 1 -23 42 0 48 16
60 39 32z"/>
<path d="M643 355 c-12 -36 -17 -65 -12 -65 5 0 12 7 15 15 4 8 17 15 30 15
15 0 24 -6 24 -15 0 -8 5 -15 11 -15 7 0 8 12 4 33 -10 45 -32 97 -42 97 -5 0
-18 -29 -30 -65z m35 -14 c-15 -5 -19 4 -11 24 6 18 7 18 13 -1 4 -10 3 -21
-2 -23z"/>
<path d="M740 355 c0 -37 4 -65 10 -65 6 0 10 14 10 30 0 23 4 30 20 30 11 0
20 5 20 10 0 6 -9 10 -20 10 -11 0 -20 7 -20 15 0 9 9 15 25 15 14 0 25 5 25
10 0 6 -16 10 -35 10 l-35 0 0 -65z"/>
<path d="M860 355 c0 -74 19 -91 21 -17 1 47 1 47 11 15 13 -40 21 -41 38 -5
l14 27 7 -45 c6 -42 6 -40 7 23 1 37 -2 67 -6 67 -5 0 -16 -15 -24 -32 l-16
-33 -12 33 c-21 56 -40 41 -40 -33z"/>
<path d="M990 355 l0 -65 41 0 c24 0 38 4 34 10 -3 6 -17 10 -31 10 -17 0 -24
5 -24 20 0 16 7 20 30 20 17 0 30 5 30 10 0 6 -13 10 -30 10 -20 0 -30 5 -30
15 0 11 12 15 50 15 l50 0 0 -55 c0 -30 5 -55 10 -55 6 0 10 25 10 55 0 48 2
55 20 55 11 0 20 5 20 10 0 6 -37 10 -90 10 l-90 0 0 -65z"/>
<path d="M1195 408 c-37 -104 -40 -118 -25 -118 6 0 10 7 10 15 0 21 40 19 56
-2 21 -30 22 -11 2 55 -18 59 -33 77 -43 50z m25 -60 c0 -5 -6 -8 -14 -8 -9 0
-12 7 -9 21 4 16 8 17 14 7 5 -7 9 -16 9 -20z"/>
<path d="M1270 355 l0 -65 41 0 c24 0 38 4 34 10 -3 6 -17 10 -31 10 -23 0
-24 3 -24 55 0 30 -4 55 -10 55 -6 0 -10 -28 -10 -65z"/>
<path d="M1406 401 c-26 -28 -18 -92 12 -107 28 -14 62 -7 62 13 0 11 -4 11
-21 3 -15 -8 -24 -8 -34 0 -37 30 -13 97 31 86 27 -7 33 8 8 18 -26 10 -40 7
-58 -13z"/>
<path d="M1515 406 c-15 -10 -19 -25 -19 -56 2 -49 13 -63 50 -62 49 0 71 63
38 110 -17 25 -42 28 -69 8z m53 -18 c28 -28 2 -95 -31 -82 -22 8 -32 47 -17
73 12 24 30 27 48 9z"/>
<path d="M1645 410 c-7 -11 -35 -101 -35 -112 0 -5 5 -8 10 -8 6 0 10 7 10 15
0 21 40 19 56 -2 21 -30 22 -11 1 55 -18 59 -29 73 -42 52z m25 -62 c0 -5 -7
-8 -15 -8 -17 0 -18 2 -9 25 5 13 8 14 15 3 5 -7 9 -16 9 -20z"/>
<path d="M1705 410 c-3 -5 3 -10 14 -10 23 0 30 -19 27 -72 -1 -21 2 -38 6
-38 4 0 8 23 8 51 0 42 3 52 20 56 11 3 20 9 20 14 0 12 -87 11 -95 -1z"/>
<path d="M1815 355 c0 -63 1 -65 25 -64 14 0 19 3 13 6 -16 6 -18 103 -2 103
5 0 7 5 4 10 -3 6 -14 10 -23 10 -14 0 -17 -11 -17 -65z"/>
<path d="M1880 355 c0 -36 4 -65 9 -65 5 0 8 20 6 45 -3 52 5 51 30 -5 27 -60
43 -52 40 21 -4 74 -15 91 -15 23 l-1 -49 -25 48 c-13 26 -29 47 -34 47 -6 0
-10 -29 -10 -65z"/>
<path d="M2013 412 c-23 -15 -34 -62 -20 -90 10 -23 19 -27 52 -27 36 0 40 3
43 26 3 22 -2 27 -22 31 -30 6 -33 0 -9 -17 18 -13 10 -35 -12 -35 -8 0 -22
11 -31 25 -14 21 -15 31 -5 51 10 23 16 25 46 20 20 -4 35 -3 35 2 0 19 -54
29 -77 14z"/>
<path d="M2152 358 l-2 -68 36 0 c21 0 33 4 29 10 -3 6 -17 10 -30 10 -22 0
-24 5 -28 58 l-3 57 -2 -67z"/>
<path d="M2230 356 l0 -66 35 0 c19 0 35 5 35 10 0 6 -11 10 -25 10 -23 0 -25
3 -25 49 0 28 -4 53 -10 56 -6 4 -10 -18 -10 -59z"/>
<path d="M2333 412 c-21 -13 -33 -60 -23 -87 15 -40 90 -55 90 -18 0 10 -4 11
-19 3 -27 -14 -28 -13 -46 14 -30 45 16 101 53 64 9 -9 12 -8 12 4 0 24 -41
36 -67 20z"/>
</g>
</svg>
